<?xml version="1.0" encoding="UTF-8" standalone="no"?>
<svg
   xmlns:dc="http://purl.org/dc/elements/1.1/"
   xmlns:cc="http://creativecommons.org/ns#"
   xmlns:rdf="http://www.w3.org/1999/02/22-rdf-syntax-ns#"
   xmlns:svg="http://www.w3.org/2000/svg"
   xmlns="http://www.w3.org/2000/svg"
   xmlns:sodipodi="http://sodipodi.sourceforge.net/DTD/sodipodi-0.dtd"
   xmlns:inkscape="http://www.inkscape.org/namespaces/inkscape"
   version="1.1"
   width="63.799999"
   height="63.799999"
   viewbox="0 0 17 17"
   id="svg32"
   sodipodi:docname="windy-night.svg"
   inkscape:version="1.0.1 (3bc2e813f5, 2020-09-07)">
  <metadata
     id="metadata36">
    <rdf:RDF>
      <cc:Work
         rdf:about="">
        <dc:format>image/svg+xml</dc:format>
        <dc:type
           rdf:resource="http://purl.org/dc/dcmitype/StillImage" />
        <dc:title></dc:title>
      </cc:Work>
    </rdf:RDF>
  </metadata>
  <sodipodi:namedview
     pagecolor="#ffffff"
     bordercolor="#666666"
     borderopacity="1"
     objecttolerance="10"
     gridtolerance="10"
     guidetolerance="10"
     inkscape:pageopacity="0"
     inkscape:pageshadow="2"
     inkscape:window-width="1749"
     inkscape:window-height="895"
     id="namedview34"
     showgrid="false"
     inkscape:zoom="7.4804254"
     inkscape:cx="18.5"
     inkscape:cy="18.5"
     inkscape:window-x="983"
     inkscape:window-y="726"
     inkscape:window-maximized="0"
     inkscape:current-layer="cloudy" />
  <defs
     id="defs15">
    <filter
       id="blur"
       width="2"
       height="2">
      <feComponentTransfer
         id="feComponentTransfer4">
        <feFuncA
           type="linear"
           slope="0.05"
           id="feFuncA2" />
      </feComponentTransfer>
      <feMerge
         id="feMerge10">
        <feMergeNode
           id="feMergeNode6" />
        <feMergeNode
           in="SourceGraphic"
           id="feMergeNode8" />
      </feMerge>
    </filter>
    <style
       type="text/css"
       id="style13"><![CDATA[
/* CLOUDS */
@keyframes am-weather-cloud-1 {
	0% {
		-webkit-transform: translate(-2px,0px);
		-moz-transform: translate(-2px,0px);
		-ms-transform: translate(-2px,0px);
		transform: translate(-2px,0px);
	}
	25% {
		-webkit-transform: translate(8px,0px);
		-moz-transform: translate(8px,0px);
		-ms-transform: translate(8px,0px);
		transform: translate(8px,0px);
	}
	50% {
		-webkit-transform: translate(-2px,0px);
		-moz-transform: translate(-2px,0px);
		-ms-transform: translate(-2px,0px);
		transform: translate(-2px,0px);
	}
	100% {
		-webkit-transform: translate(-2px,0px);
		-moz-transform: translate(-2px,0px);
		-ms-transform: translate(-2px,0px);
		transform: translate(-2px,0px);
	}
}
.am-weather-cloud-1 {
	-webkit-animation-name: am-weather-cloud-1;
	-moz-animation-name: am-weather-cloud-1;
	animation-name: am-weather-cloud-1;
	-webkit-animation-duration: 10s;
	-moz-animation-duration: 10s;
	animation-duration: 10s;
	-webkit-animation-timing-function: linear;
	-moz-animation-timing-function: linear;
	animation-timing-function: linear;
	-webkit-animation-iteration-count: infinite;
	-moz-animation-iteration-count: infinite;
	animation-iteration-count: infinite;
}
@keyframes am-weather-cloud-2 {
	0% {
		-webkit-transform: translate(8px,0px);
		-moz-transform: translate(8px,0px);
		-ms-transform: translate(8px,0px);
		transform: translate(8px,0px);
	}
	12% {
		-webkit-transform: translate(-2px,0px);
		-moz-transform: translate(-2px,0px);
		-ms-transform: translate(-2px,0px);
		transform: translate(-2px,0px);
	}
	50% {
		-webkit-transform: translate(8px,0px);
		-moz-transform: translate(8px,0px);
		-ms-transform: translate(8px,0px);
		transform: translate(8px,0px);
	}
	100% {
		-webkit-transform: translate(8px,0px);
		-moz-transform: translate(8px,0px);
		-ms-transform: translate(8px,0px);
		transform: translate(8px,0px);
	}
}
.am-weather-cloud-2 {
	-webkit-animation-name: am-weather-cloud-2;
	-moz-animation-name: am-weather-cloud-2;
	animation-name: am-weather-cloud-2;
	-webkit-animation-duration: 10s;
	-moz-animation-duration: 10s;
	animation-duration: 10s;
	-webkit-animation-timing-function: linear;
	-moz-animation-timing-function: linear;
	animation-timing-function: linear;
	-webkit-animation-iteration-count: infinite;
	-moz-animation-iteration-count: infinite;
	animation-iteration-count: infinite;
}


@keyframes am-weather-cloud-3 {
	0% {
		-webkit-transform: translate(0px,0px);
		-moz-transform: translate(0px,0px);
		-ms-transform: translate(0px,0px);
		transform: translate(0px,0px);
	}
	25% {
		-webkit-transform: translate(2px,0px);
		-moz-transform: translate(2px,0px);
		-ms-transform: translate(2px,0px);
		transform: translate(2px,0px);
	}
	50% {
		-webkit-transform: translate(0px,0px);
		-moz-transform: translate(0px,0px);
		-ms-transform: translate(0px,0px);
		transform: translate(0px,0px);
	}

}
.am-weather-cloud-3 {
	-webkit-animation-name: am-weather-cloud-3;
	-moz-animation-name: am-weather-cloud-3;
	animation-name: am-weather-cloud-3;
	-webkit-animation-duration: 10s;
	-moz-animation-duration: 10s;
	animation-duration: 10s;
	-webkit-animation-timing-function: linear;
	-moz-animation-timing-function: linear;
	animation-timing-function: linear;
	-webkit-animation-iteration-count: infinite;
	-moz-animation-iteration-count: infinite;
	animation-iteration-count: infinite;
}
/* EASING */
.am-weather-easing-ease-in-out {
	-webkit-animation-timing-function: ease-in-out;
	-moz-animation-timing-function: ease-in-out;
	-ms-animation-timing-function: ease-in-out;
	animation-timing-function: ease-in-out;
}]]></style>
  </defs>
  <g
     filter="url(#blur)"
     id="cloudy">
    <g
       transform="matrix(1.3229397,0,0,1.3229397,13.159465,6.369711)"
       id="g29">
      <g
         class="am-weather-cloud-1 am-weather-easing-ease-in-out"
         id="g19">
        <path
           d="M 41.35,22.94 C 38.58,23.68 30.28,25.06 25.12,22.57 16.68,18.49 7.68,22.36 7.3,22.52 c -1.51,0.67 -2.2,2.43 -1.54,3.94 0.66,1.52 2.43,2.21 3.94,1.56 0.07,-0.03 6.89,-2.91 12.8,-0.05 3.19,1.54 6.91,2.02 10.3,2.02 5.31,0 9.8,-1.18 10.1,-1.26 1.6,-0.43 2.55,-2.08 2.12,-3.68 -0.42,-1.59 -2.07,-2.54 -3.67,-2.11 z"
           fill="#b7b7b7"
           transform="matrix(0.37,0,0,0.37,0,24)"
           id="path17" />
      </g>
      <g
         class="am-weather-cloud-2 am-weather-easing-ease-in-out"
         id="g23">
        <path
           d="m 47.76,14.87 c -0.65,-1.52 -2.41,-2.24 -3.93,-1.59 -0.09,0.04 -9.6,3.91 -16.38,0.63 C 18.33,9.5 3.8,13.55 3.18,13.72 c -1.59,0.45 -2.52,2.11 -2.06,3.7 0.45,1.59 2.11,2.52 3.7,2.07 3.58,-1.01 14.15,-3.02 20.01,-0.19 2.95,1.43 6.13,1.92 9.11,1.92 6.41,0 11.9,-2.29 12.23,-2.43 1.53,-0.64 2.24,-2.4 1.59,-3.92 z"
           fill="#d4d4d4"
           transform="matrix(0.37,0,0,0.37,0,23)"
           id="path21" />
      </g>
      <g
         class="am-weather-cloud-3 am-weather-easing-ease-in-out"
         id="g27">
        <path
           d="m 47.7,35.4 c 0,-4.6 -3.7,-8.2 -8.2,-8.2 -1,0 -1.9,0.2 -2.8,0.5 -0.3,-3.4 -3.1,-6.2 -6.6,-6.2 -3.7,0 -6.7,3 -6.7,6.7 0,0.8 0.2,1.6 0.4,2.3 -0.3,-0.1 -0.7,-0.1 -1,-0.1 -3.7,0 -6.7,3 -6.7,6.7 0,3.6 2.9,6.6 6.5,6.7 h 17.2 c 4.4,-0.5 7.9,-4 7.9,-8.4 z"
           fill="#d4d4d4"
           transform="translate(-20,-18)"
           id="path25" />
      </g>
    </g>
  </g>
</svg>
