<?xml version="1.0" encoding="UTF-8" standalone="no"?>
<svg
   xmlns:dc="http://purl.org/dc/elements/1.1/"
   xmlns:cc="http://creativecommons.org/ns#"
   xmlns:rdf="http://www.w3.org/1999/02/22-rdf-syntax-ns#"
   xmlns:svg="http://www.w3.org/2000/svg"
   xmlns="http://www.w3.org/2000/svg"
   xmlns:sodipodi="http://sodipodi.sourceforge.net/DTD/sodipodi-0.dtd"
   xmlns:inkscape="http://www.inkscape.org/namespaces/inkscape"
   data-name="Layer 1"
   id="Layer_1"
   viewBox="0 0 64 64"
   version="1.1"
   sodipodi:docname="snowy-1.svg"
   inkscape:version="1.0.1 (3bc2e813f5, 2020-09-07)">
  <metadata
     id="metadata75">
    <rdf:RDF>
      <cc:Work
         rdf:about="">
        <dc:format>image/svg+xml</dc:format>
        <dc:type
           rdf:resource="http://purl.org/dc/dcmitype/StillImage" />
        <dc:title></dc:title>
      </cc:Work>
    </rdf:RDF>
  </metadata>
  <sodipodi:namedview
     pagecolor="#ffffff"
     bordercolor="#666666"
     borderopacity="1"
     objecttolerance="10"
     gridtolerance="10"
     guidetolerance="10"
     inkscape:pageopacity="0"
     inkscape:pageshadow="2"
     inkscape:window-width="1607"
     inkscape:window-height="1173"
     id="namedview73"
     showgrid="false"
     inkscape:zoom="14.907344"
     inkscape:cx="32"
     inkscape:cy="32"
     inkscape:window-x="0"
     inkscape:window-y="0"
     inkscape:window-maximized="0"
     inkscape:current-layer="Layer_1" />
  <defs
     id="defs14">
    <style
       id="style2">.cls-1{fill:#efcc00;}.cls-2,.cls-5{fill:none;stroke-linecap:round;stroke-miterlimit:10;}.cls-2{stroke:#efcc00;stroke-width:3px;}.cls-3{fill:url(#linear-gradient);}.cls-4{fill:url(#linear-gradient-2);}.cls-5{stroke:#9c9fa0;stroke-width:2px;}.cls-6{fill:#c4c4c4;}.cls-7{fill:#e0e0e0;}.cls-8{fill:#fff;}</style>
    <linearGradient
       gradientTransform="matrix(-0.7414105,0,0,0.7414105,-382.78227,9.6292948)"
       gradientUnits="userSpaceOnUse"
       id="linear-gradient"
       x1="-545.28"
       x2="-566.37"
       y1="52.39"
       y2="25.08">
      <stop
         offset="0"
         stop-color="#f2f2f2"
         id="stop4" />
      <stop
         offset="1"
         stop-color="#cfcfcf"
         id="stop6" />
    </linearGradient>
    <linearGradient
       gradientTransform="matrix(0,-0.7414105,-0.7414105,0,-47.197189,-411.95997)"
       gradientUnits="userSpaceOnUse"
       id="linear-gradient-2"
       x1="-626.95"
       x2="-615.34"
       y1="-36.67"
       y2="-19.02">
      <stop
         offset="0.02"
         stop-color="#fff"
         id="stop9" />
      <stop
         offset="1"
         stop-color="#fff"
         stop-opacity="0"
         id="stop11" />
    </linearGradient>
  </defs>
  <circle
     class="cls-1"
     cx="36.856071"
     cy="25.940325"
     r="9.3343582"
     id="circle18"
     style="stroke-width:0.74141" />
  <line
     class="cls-2"
     x1="36.856071"
     x2="36.856071"
     y1="11.112116"
     y2="14.403978"
     id="line20" />
  <line
     class="cls-2"
     x1="36.856071"
     x2="36.856071"
     y1="37.476677"
     y2="40.768536"
     id="line22" />
  <line
     class="cls-2"
     x1="22.027863"
     x2="25.327139"
     y1="25.940325"
     y2="25.940325"
     id="line24" />
  <line
     class="cls-2"
     x1="48.392422"
     x2="51.684284"
     y1="25.940325"
     y2="25.940325"
     id="line26" />
  <line
     class="cls-2"
     x1="26.372528"
     x2="28.700558"
     y1="15.456781"
     y2="17.784809"
     id="line28" />
  <line
     class="cls-2"
     x1="45.011589"
     x2="47.339615"
     y1="34.09584"
     y2="36.42387"
     id="line30" />
  <line
     class="cls-2"
     x1="26.372528"
     x2="28.700558"
     y1="36.42387"
     y2="34.09584"
     id="line32" />
  <line
     class="cls-2"
     x1="45.011589"
     x2="47.339615"
     y1="17.784809"
     y2="15.456781"
     id="line34" />
  <path
     class="cls-3"
     d="m 24.771082,21.417722 a 12.96727,12.96727 0 0 1 11.491862,6.909946 10.194394,10.194394 0 1 1 5.130561,18.994936 l -16.622423,0.04449 a 12.974684,12.974684 0 0 1 0,-25.949367 z"
     id="path36"
     style="fill:url(#linear-gradient);stroke-width:0.74141" />
  <circle
     class="cls-4"
     cx="-24.621243"
     cy="49.834972"
     r="10.194394"
     transform="rotate(-74.39)"
     id="circle38"
     style="fill:url(#linear-gradient-2);stroke-width:0.74141" />
  <line
     class="cls-5"
     x1="31.169455"
     x2="31.169455"
     y1="33.42857"
     y2="40.93906"
     id="line40" />
  <polyline
     class="cls-5"
     points="33.3 30.79 32.13 32.26 30.95 30.79"
     id="polyline42"
     transform="matrix(0.7414105,0,0,0.7414105,7.347935,9.6292948)" />
  <polyline
     class="cls-5"
     points="30.95 43.55 32.13 42.08 33.3 43.55"
     id="polyline44"
     transform="matrix(0.7414105,0,0,0.7414105,7.347935,9.6292948)" />
  <line
     class="cls-5"
     x1="34.416832"
     x2="27.914661"
     y1="35.30434"
     y2="39.063293"
     id="line46" />
  <polyline
     class="cls-5"
     points="38.24 35 36.38 34.71 37.06 32.96"
     id="polyline48"
     transform="matrix(0.7414105,0,0,0.7414105,7.347935,9.6292948)" />
  <polyline
     class="cls-5"
     points="26.01 39.34 27.87 39.62 27.19 41.38"
     id="polyline50"
     transform="matrix(0.7414105,0,0,0.7414105,7.347935,9.6292948)" />
  <line
     class="cls-5"
     x1="34.416832"
     x2="27.914661"
     y1="39.063293"
     y2="35.30434"
     id="line52" />
  <polyline
     class="cls-5"
     points="37.06 41.38 36.38 39.62 38.24 39.34"
     id="polyline54"
     transform="matrix(0.7414105,0,0,0.7414105,7.347935,9.6292948)" />
  <polyline
     class="cls-5"
     points="27.19 32.96 27.87 34.71 26.01 35"
     id="polyline56"
     transform="matrix(0.7414105,0,0,0.7414105,7.347935,9.6292948)" />
  <circle
     class="cls-6"
     cx="26.995314"
     cy="52.356781"
     r="1.482821"
     id="circle58"
     style="stroke-width:0.74141" />
  <circle
     class="cls-7"
     cx="34.409416"
     cy="54.581013"
     r="1.1121157"
     id="circle60"
     style="stroke-width:0.74141" />
  <circle
     class="cls-7"
     cx="21.06403"
     cy="49.39114"
     r="1.1121157"
     id="circle62"
     style="stroke-width:0.74141" />
  <circle
     class="cls-8"
     cx="31.443777"
     cy="49.39114"
     r="0.74141049"
     id="circle64"
     style="stroke-width:0.74141" />
  <circle
     class="cls-8"
     cx="41.823524"
     cy="54.581013"
     r="0.74141049"
     id="circle66"
     style="stroke-width:0.74141" />
  <circle
     class="cls-8"
     cx="20.322618"
     cy="54.581013"
     r="0.74141049"
     id="circle68"
     style="stroke-width:0.74141" />
  <circle
     class="cls-6"
     cx="38.85788"
     cy="50.132549"
     r="1.482821"
     id="circle70"
     style="stroke-width:0.74141" />
</svg>
